<svg xmlns="http://www.w3.org/2000/svg" version="1.1" xmlns:xlink="http://www.w3.org/1999/xlink" xmlns:svgjs="http://svgjs.com/svgjs" width="512" height="512" x="0" y="0" viewBox="0 0 29.898438 29.898438" style="enable-background:new 0 0 512 512" xml:space="preserve" class=""><g><linearGradient id="linearGradient440221" gradientUnits="userSpaceOnUse" x1="30" x2="2.05" y1="30" y2="2.05"><stop id="stop430917" offset="0" stop-color="#00d8ff"></stop><stop id="stop430919" offset="1" stop-color="#00f"></stop></linearGradient><g id="layer2" transform="translate(158.949 -161.051)"><g id="g6774" fill="url(#linearGradient440221)" transform="matrix(0 -1 -1 0 -128 192)"><path id="path191316" d="m30.949219 16c0 8.24478-6.704439 14.949219-14.949219 14.949219-8.2447794 0-14.9492187-6.704439-14.9492188-14.949219.0000002-8.2447794 6.7044394-14.9492186 14.9492188-14.9492188 8.24478.0000001 14.949219 6.7044394 14.949219 14.9492188zm-7.960938 2.15625a1 1 0 0 0 -.28125-.863281 1 1 0 0 0 -1.414062 0l-4.292969 4.292969v-13.585938a1 1 0 0 0 -1-1 1 1 0 0 0 -1 1v13.585938l-4.292969-4.292969a1 1 0 0 0 -.707031-.292969 1 1 0 0 0 -.7070312.292969 1 1 0 0 0 0 1.414062l6.0000002 6a1.0001 1.0001 0 0 0 1.414062 0l6-6a1 1 0 0 0 .28125-.550781z" fill="" stroke-linecap="round" stroke-linejoin="round"></path></g></g></g></svg>