<svg xmlns="http://www.w3.org/2000/svg" version="1.1" xmlns:xlink="http://www.w3.org/1999/xlink" xmlns:svgjs="http://svgjs.com/svgjs" width="512" height="512" x="0" y="0" viewBox="0 0 28 25.998516" style="enable-background:new 0 0 512 512" xml:space="preserve" class=""><g><linearGradient id="linearGradient454449" gradientUnits="userSpaceOnUse" x1="2.05" x2="30" y1="2.05" y2="29"><stop id="stop430917" offset="0" stop-color="#00d8ff"></stop><stop id="stop430919" offset="1" stop-color="#00f"></stop></linearGradient><g id="layer2" transform="translate(-82 -123)"><g id="g16138" fill="url(#linearGradient454449)" transform="translate(80 120)"><path id="path177403" d="m7 3c-2.7526929 0-5 2.247305-5 5v12c0 2.752695 2.2473071 5 5 5h4c.162376 0 .314257.07007.419922.193359a1.0001 1.0001 0 0 0 .06445.06836l3.396484 3.291015c.616257.632279 1.665514.555228 2.238282 0l3.396484-3.291015c.203593-.197357.364182-.261719.484378-.261719h4c2.752694 0 5-2.247306 5-5v-12c0-2.7526944-2.247306-5-5-5zm1 5h11a1 1 0 0 1 1 1 1 1 0 0 1 -1 1h-11a1 1 0 0 1 -1-1 1 1 0 0 1 1-1zm0 5h16a1 1 0 0 1 1 1 1 1 0 0 1 -1 1h-16a1 1 0 0 1 -1-1 1 1 0 0 1 1-1zm0 5h11a1 1 0 0 1 1 1 1 1 0 0 1 -1 1h-11a1 1 0 0 1 -1-1 1 1 0 0 1 1-1z" fill="" stroke-linecap="round" stroke-linejoin="round"></path></g></g></g></svg>