<svg xmlns="http://www.w3.org/2000/svg" version="1.1" xmlns:xlink="http://www.w3.org/1999/xlink" xmlns:svgjs="http://svgjs.com/svgjs" width="512" height="512" x="0" y="0" viewBox="0 0 497 497" style="enable-background:new 0 0 512 512" xml:space="preserve" class=""><g><g><path d="m452 53.5-30 45 30 45h30c8.284 0 15-6.716 15-15v-60c0-8.284-6.716-15-15-15z" fill="#3b88f5" data-original="#3b88f5" class=""></path><path d="m0 68.5v60c0 8.284 6.716 15 15 15h437c8.284 0 15-6.716 15-15v-60c0-8.284-6.716-15-15-15h-437c-8.284 0-15 6.716-15 15z" fill="#28abfa" data-original="#28abfa" class=""></path><path d="m452 203.5-30 45 30 45h30c8.284 0 15-6.716 15-15v-60c0-8.284-6.716-15-15-15z" fill="#3b88f5" data-original="#3b88f5" class=""></path><path d="m0 218.5v60c0 8.284 6.716 15 15 15h437c8.284 0 15-6.716 15-15v-60c0-8.284-6.716-15-15-15h-437c-8.284 0-15 6.716-15 15z" fill="#28abfa" data-original="#28abfa" class=""></path><path d="m452 353.5-30 45 30 45h30c8.284 0 15-6.716 15-15v-60c0-8.284-6.716-15-15-15z" fill="#3b88f5" data-original="#3b88f5" class=""></path><path d="m0 368.5v60c0 8.284 6.716 15 15 15h437c8.284 0 15-6.716 15-15v-60c0-8.284-6.716-15-15-15h-437c-8.284 0-15 6.716-15 15z" fill="#28abfa" data-original="#28abfa" class=""></path></g></g></svg>