<svg xmlns="http://www.w3.org/2000/svg" version="1.1" xmlns:xlink="http://www.w3.org/1999/xlink" xmlns:svgjs="http://svgjs.com/svgjs" width="512" height="512" x="0" y="0" viewBox="0 0 28 24" style="enable-background:new 0 0 512 512" xml:space="preserve" class=""><g><linearGradient id="linearGradient435746" gradientUnits="userSpaceOnUse" x1="2" x2="30" y1="2" y2="30"><stop id="stop430917" offset="0" stop-color="#00d8ff"></stop><stop id="stop430919" offset="1" stop-color="#00f"></stop></linearGradient><g id="layer2" transform="translate(158 -84)"><g id="g18547" fill="url(#linearGradient435746)" transform="translate(-160 80)"><path id="path163467" d="m7 4c-2.7526889 0-5 2.2473111-5 5v2h28v-2c0-2.7526889-2.247312-5-5-5zm-5 9v10c0 2.752688 2.2473111 5 5 5h18c2.752688 0 5-2.247312 5-5v-10zm6 8h3a1 1 0 0 1 1 1 1 1 0 0 1 -1 1h-3a1 1 0 0 1 -1-1 1 1 0 0 1 1-1z" fill="" stroke-linecap="round" stroke-linejoin="round"></path></g></g></g></svg>