<svg xmlns="http://www.w3.org/2000/svg" version="1.1" xmlns:xlink="http://www.w3.org/1999/xlink" xmlns:svgjs="http://svgjs.com/svgjs" width="512" height="512" x="0" y="0" viewBox="0 0 512 512" style="enable-background:new 0 0 512 512" xml:space="preserve" class=""><g><g fill-rule="evenodd"><path d="m216.61 425.22a207.6 207.6 0 0 0 103.016-27.1l5.3-3.018 94.4 94.406a49.6 49.6 0 1 0 70.174-70.137l-94.389-94.4 3.015-5.3a208.683 208.683 0 0 0 -329.032-250.594 208.622 208.622 0 0 0 147.516 356.143z" fill="#d1e7ff" data-original="#d1e7ff" class=""></path><path d="m93.138 93.141a174.77 174.77 0 0 1 246.95 0c68.08 68.087 68.08 178.9 0 246.986a174.633 174.633 0 0 1 -246.95-246.986zm302.949 280.851-15.654-15.647c-3.393 3.93-6.944 7.716-10.645 11.431s-7.53 7.288-11.453 10.646l15.654 15.646 22.1-22.076zm69.366 91.449a15.634 15.634 0 0 1 -22.1 0l-39.666-39.652 22.1-22.076 39.666 39.652a15.6 15.6 0 0 1 0 22.076zm-248.843-32.221a215.473 215.473 0 0 0 106.974-28.15l90.085 90.093a57.605 57.605 0 0 0 81.484-81.448l-90.078-90.092a216.682 216.682 0 0 0 -341.637-260.203 216.622 216.622 0 0 0 153.172 369.8z" fill="#2e58ff" data-original="#2e58ff" class=""></path></g></g></svg>