<svg xmlns="http://www.w3.org/2000/svg" version="1.1" xmlns:xlink="http://www.w3.org/1999/xlink" xmlns:svgjs="http://svgjs.com/svgjs" width="512" height="512" x="0" y="0" viewBox="0 0 26.681211 28" style="enable-background:new 0 0 512 512" xml:space="preserve" class=""><g><linearGradient id="linearGradient437078" gradientUnits="userSpaceOnUse" x1="2.05" x2="30" y1="2.05" y2="30"><stop id="stop430917" offset="0" stop-color="#00d8ff"></stop><stop id="stop430919" offset="1" stop-color="#00f"></stop></linearGradient><g id="layer2" transform="translate(37.341 -82)"><g id="g28352" fill="url(#linearGradient437078)" transform="translate(-40 80)"><path id="path165506" d="m14 2c-1.644697 0-3 1.355302-3 3v1.2597656c-.173715.089394-.344964.1827322-.513672.28125-.35205-.2259062-.7139068-.4544139-1.0624999-.6757812-1.385359-.8852549-3.2569425-.4757935-4.1425781.9101562l-2.1542969 3.3710934c-.8852582 1.38536-.4757937 3.256942.9101563 4.142578l1.0507812.671876c-.0344617.344109-.0859942.687121-.0859924 1.039062s.051531.694953.085992 1.039062l-1.0507812.671876c-1.38595.885636-1.7954145 2.757218-.9101563 4.142578l2.1542973 3.371093c.8856356 1.385951 2.7572189 1.795415 4.1425781.910157.3499225-.219272.7098439-.450834 1.0624999-.675782.168708.09852.339957.191856.513672.28125v1.259766c0 1.644697 1.355303 3 3 3h4c1.644697 0 3-1.355303 3-3v-1.259766c.173715-.08939.344964-.182732.513672-.28125.35205.225906.713906.454414 1.0625.675782 1.385358.885257 3.256943.475793 4.142578-.910157l2.154297-3.371093c.885258-1.38536.475792-3.256942-.910156-4.142578l-1.050782-.671876c.03446-.344109.086-.687121.08671-1.038383.000705-.351261-.04732-.696892-.08085-1.043648l1.044922-.667969c1.385948-.885636 1.795414-2.757218.910156-4.142578l-2.154297-3.3710934c-.885635-1.3859494-2.75722-1.7954137-4.142578-.9101562l-1.048828.6699218c-.173064-.1007427-.349039-.195963-.527344-.2871093v-1.2480469c0-1.644698-1.355303-3-3-3zm2 8c3.301858 0 6 2.698142 6 6s-2.698142 6-6 6-6-2.698142-6-6 2.698142-6 6-6zm0 2c-2.220979 0-4 1.779021-4 4s1.779021 4 4 4 4-1.779021 4-4-1.779021-4-4-4z" fill="" stroke-linecap="round" stroke-linejoin="round"></path></g></g></g></svg>