<svg xmlns="http://www.w3.org/2000/svg" version="1.1" xmlns:xlink="http://www.w3.org/1999/xlink" xmlns:svgjs="http://svgjs.com/svgjs" width="512" height="512" x="0" y="0" viewBox="0 0 24 24" style="enable-background:new 0 0 512 512" xml:space="preserve" class="hovered-paths"><g><path d="m24 12c0-2.3-.1-4.4-.5-5.6-.4-1.4-.9-2.7-2.1-3.9-1.5-1.4-2.8-1.8-4.8-2.2-1.4-.2-3.1-.3-4.1-.3-.3 0-.6 0-.9 0-1.1 0-2.7.1-4.2.3-2 .4-3.4.9-4.8 2.2-1.3 1.2-1.7 2.5-2.1 3.9-.4 1.2-.5 3.3-.5 5.6 0 2.3.1 4.4.5 5.6.4 1.4.9 2.7 2.1 3.9 1.5 1.4 2.8 1.8 4.8 2.2 1.6.3 3.6.3 4.6.3 1 0 3 0 4.7-.3 1.9-.4 3.3-.8 4.8-2.2 1.2-1.1 1.7-2.4 2.1-3.9.3-1.2.4-3.3.4-5.6z" fill="#379df1" data-original="#379df1" class=""></path><path d="m3.9 17.4c0 .5.4.9.9.9h4.5v-1.8h-4.5c-.5 0-.9.5-.9.9zm0-10.8c0 .5.4.9.9.9h8.1v-1.8h-8.1c-.5 0-.9.4-.9.9zm9 12.6v-.9h6.3c.4 0 .9-.4.9-.9 0-.4-.5-.9-.9-.9h-6.3v-.9c0-.5-.4-.9-.9-.9s-.9.4-.9.9v3.6c0 .4.4.9.9.9s.9-.5.9-.9zm-5.4-9v.9h-2.7c-.5 0-.9.4-.9.9s.4.9.9.9h2.7v.9c0 .5.4.9.9.9s.9-.4.9-.9v-3.6c0-.5-.4-.9-.9-.9s-.9.4-.9.9zm12.6 1.8c0-.5-.5-.9-.9-.9h-8.1v1.8h8.1c.4 0 .9-.4.9-.9zm-4.5-2.7c.4 0 .9-.4.9-.9v-.9h2.7c.4 0 .9-.4.9-.9s-.5-.9-.9-.9h-2.7v-.9c0-.5-.5-.9-.9-.9-.5 0-.9.4-.9.9v3.6c0 .5.4.9.9.9z" fill="#ffffff" data-original="#ffffff" class="hovered-path"></path></g></svg>